<svg aria-hidden="true" style="position: absolute; width: 0; height: 0; overflow: hidden;" version="1.1" xmlns="http://www.w3.org/2000/svg" xmlns:xlink="http://www.w3.org/1999/xlink">
<defs>

<symbol id="icon-instagram" viewBox="0 0 32 32">
<path fill="none" stroke="#f45588" stroke-width="2" stroke-miterlimit="4" stroke-linecap="butt" stroke-linejoin="miter" style="stroke: var(--color1, #f45588)" d="M16 1c8.284 0 15 6.716 15 15s-6.716 15-15 15c-8.284 0-15-6.716-15-15s6.716-15 15-15z"></path>
<path fill="#f45588" style="fill: var(--color1, #f45588)" d="M12.267 7.111h7.467c2.845 0 5.156 2.311 5.156 5.156v7.467c0 1.367-0.543 2.679-1.51 3.645s-2.278 1.51-3.646 1.51h-7.467c-2.844 0-5.156-2.311-5.156-5.155v-7.467c0-1.367 0.543-2.679 1.51-3.646s2.278-1.51 3.646-1.51zM12.089 8.889c-0.849 0-1.663 0.337-2.263 0.937s-0.937 1.414-0.937 2.263v7.822c0 1.769 1.431 3.2 3.2 3.2h7.822c0.849 0 1.663-0.337 2.263-0.937s0.937-1.414 0.937-2.263v-7.822c0-1.769-1.431-3.2-3.2-3.2h-7.822zM20.667 10.222c0.295 0 0.577 0.117 0.786 0.325s0.325 0.491 0.325 0.786c0 0.295-0.117 0.577-0.325 0.786s-0.491 0.325-0.786 0.325c-0.295 0-0.577-0.117-0.786-0.325s-0.325-0.491-0.325-0.786c0-0.295 0.117-0.577 0.325-0.786s0.491-0.325 0.786-0.325zM16 11.556c1.179 0 2.309 0.468 3.143 1.302s1.302 1.964 1.302 3.143c0 1.179-0.468 2.309-1.302 3.143s-1.964 1.302-3.143 1.302c-1.179 0-2.309-0.468-3.143-1.302s-1.302-1.964-1.302-3.143c0-1.179 0.468-2.309 1.302-3.143s1.964-1.302 3.143-1.302zM16 13.334c-0.707 0-1.385 0.281-1.886 0.781s-0.781 1.178-0.781 1.886c0 0.707 0.281 1.385 0.781 1.886s1.178 0.781 1.886 0.781c0.707 0 1.386-0.281 1.886-0.781s0.781-1.178 0.781-1.886c0-0.707-0.281-1.386-0.781-1.886s-1.178-0.781-1.886-0.781z"></path>
</symbol>

<symbol id="icon-telegram" viewBox="0 0 32 32">
<path fill="none" stroke="#f45588" stroke-width="2" stroke-miterlimit="4" stroke-linecap="butt" stroke-linejoin="miter" style="stroke: var(--color1, #f45588)" d="M16 1c8.284 0 15 6.716 15 15s-6.716 15-15 15c-8.284 0-15-6.716-15-15s6.716-15 15-15z"></path>
<path fill="none" stroke="#f45588" stroke-width="2.6667" stroke-miterlimit="4" stroke-linecap="round" stroke-linejoin="round" style="stroke: var(--color1, #f45588)" d="M21.778 23.111l2.222-13.333-10.667 7.556"></path>
<path fill="none" stroke="#f45588" stroke-width="2.6667" stroke-miterlimit="4" stroke-linecap="round" stroke-linejoin="round" style="stroke: var(--color1, #f45588)" d="M24 9.778l-16.889 6.667"></path>
<path fill="none" stroke="#f45588" stroke-width="2.6667" stroke-miterlimit="4" stroke-linecap="round" stroke-linejoin="round" style="stroke: var(--color1, #f45588)" d="M21.778 23.111l-8.444-5.778"></path>
<path fill="none" stroke="#f45588" stroke-width="2.6667" stroke-miterlimit="4" stroke-linecap="round" stroke-linejoin="round" style="stroke: var(--color1, #f45588)" d="M7.111 16.445l6.222 0.889"></path>
<path fill="none" stroke="#f45588" stroke-width="2.6667" stroke-miterlimit="4" stroke-linecap="round" stroke-linejoin="round" style="stroke: var(--color1, #f45588)" d="M16 19.556l-2.667 2.667v-4.889"></path>
</symbol>

<symbol id="icon-tiktok" viewBox="0 0 32 32">
<path fill="none" stroke="#f45588" stroke-width="2" stroke-miterlimit="4" stroke-linecap="butt" stroke-linejoin="miter" style="stroke: var(--color1, #f45588)" d="M16 1c8.284 0 15 6.716 15 15s-6.716 15-15 15c-8.284 0-15-6.716-15-15s6.716-15 15-15z"></path>
<path fill="#f45588" style="fill: var(--color1, #f45588)" d="M20.089 10.507c-0.607-0.694-0.942-1.585-0.942-2.507h-2.747v11.022c-0.021 0.597-0.272 1.162-0.702 1.576s-1.003 0.646-1.6 0.646c-1.262 0-2.311-1.031-2.311-2.311 0-1.529 1.476-2.676 2.995-2.204v-2.809c-3.067-0.409-5.751 1.973-5.751 5.013 0 2.96 2.453 5.067 5.058 5.067 2.791 0 5.058-2.267 5.058-5.067v-5.591c1.114 0.8 2.451 1.229 3.822 1.227v-2.747c0 0-1.671 0.080-2.88-1.316z"></path>
</symbol>

<symbol id="icon-heart" viewBox="0 0 36 32">
<path fill="#f35185" style="fill: var(--color1, #f35185)" d="M7.29 3.151c2.687-1.228 6.297-0.903 9.727 2.663l3.35 3.348c0.115 0.119 0.253 0.214 0.406 0.28s0.317 0.1 0.483 0.101 0.331-0.030 0.484-0.093c0.154-0.063 0.293-0.156 0.41-0.273s0.21-0.257 0.273-0.411c0.063-0.154 0.094-0.318 0.093-0.484s-0.036-0.33-0.102-0.482c-0.066-0.152-0.161-0.29-0.28-0.406l-2.43-2.43c3.157-2.76 6.383-2.935 8.84-1.813 2.765 1.263 4.79 4.272 4.79 7.855 0 3.662-1.498 6.485-3.647 8.905-1.772 1.993-3.915 3.645-6.005 5.258-0.498 0.381-0.989 0.763-1.475 1.145-0.877 0.692-1.658 1.297-2.413 1.738-0.753 0.442-1.36 0.642-1.877 0.642s-1.122-0.2-1.877-0.642-1.537-1.047-2.413-1.738c-0.486-0.381-0.977-0.763-1.475-1.147-2.090-1.61-4.233-3.263-6.005-5.257-2.147-2.42-3.647-5.243-3.647-8.905 0-3.585 2.025-6.592 4.79-7.855zM17.917 3.211c-3.853-3.45-8.168-3.933-11.667-2.335-3.69 1.692-6.25 5.612-6.25 10.132 0 4.442 1.85 7.832 4.278 10.565 1.943 2.188 4.322 4.020 6.423 5.637 0.478 0.367 0.937 0.723 1.377 1.070 0.855 0.673 1.772 1.39 2.7 1.933s1.988 0.983 3.138 0.983 2.21-0.442 3.138-0.983c0.93-0.543 1.845-1.26 2.7-1.933 0.44-0.347 0.899-0.703 1.377-1.070 2.1-1.617 4.48-3.45 6.423-5.637 2.428-2.733 4.278-6.123 4.278-10.565 0-4.52-2.558-8.44-6.25-10.128-3.498-1.6-7.813-1.117-11.667 2.332z"></path>
</symbol>

<symbol id="icon-security" viewBox="0 0 25 32">
<path fill="none" stroke="#f35185" stroke-width="1.7297" stroke-miterlimit="4" stroke-linecap="round" stroke-linejoin="round" style="stroke: var(--color1, #f35185)" d="M12.396 0.865l-11.531 5.255v9.76c0 5.255 5.045 12.012 11.531 15.015 6.487-1.502 11.532-9.76 11.532-15.015v-9.76l-11.532-5.255z"></path>
<path fill="none" stroke="#f35185" stroke-width="1.7297" stroke-miterlimit="4" stroke-linecap="round" stroke-linejoin="round" style="stroke: var(--color1, #f35185)" d="M8.072 16.18c0 0 2.030 0.378 2.883 3.003 0 0 2.162-4.505 5.766-6.006"></path>
</symbol>

<symbol id="icon-rezult" viewBox="0 0 38 32">
<path fill="none" stroke="#f35185" stroke-width="2.2857" stroke-miterlimit="4" stroke-linecap="round" stroke-linejoin="round" style="stroke: var(--color1, #f35185)" d="M10.552 10.562h16.419M10.552 10.562h-9.41M10.552 10.562l6.952 19.145M10.552 10.562l4.571-7.491 1.048-1.928M26.971 10.562h9.41M26.971 10.562l-6.952 19.145M26.971 10.562l-4.571-7.491-1.078-1.928M36.381 10.562c0 0.8-0.15 1.6-0.45 2.354-0.404 1.019-1.223 1.958-2.857 3.834l-6.604 7.573c-2.661 3.051-3.991 4.579-5.568 5.139-0.288 0.102-0.584 0.184-0.884 0.244-0.83 0.164-1.684 0.164-2.514 0-0.298-0.060-0.593-0.141-0.884-0.244-1.577-0.56-2.907-2.088-5.568-5.139l-6.604-7.573c-1.634-1.876-2.453-2.815-2.857-3.834-0.299-0.754-0.45-1.554-0.45-2.354M1.143 10.562c0-0.8 0.15-1.6 0.45-2.356 0.404-1.019 1.223-1.956 2.857-3.834 0.89-1.017 1.333-1.526 1.848-1.92 0.765-0.583 1.651-0.986 2.592-1.179 0.636-0.13 1.31-0.13 2.661-0.13h4.621M16.171 1.143h5.151M36.381 10.562c0-0.8-0.15-1.6-0.45-2.356-0.404-1.019-1.223-1.956-2.857-3.834-0.889-1.017-1.333-1.526-1.848-1.92-0.765-0.583-1.651-0.986-2.592-1.179-0.636-0.13-1.311-0.13-2.661-0.13h-4.651"></path>
</symbol>

<symbol id="icon-local" viewBox="0 0 32 32">
<path stroke-width="1.7778" stroke-miterlimit="4" stroke-linecap="butt" stroke-linejoin="round" d="M16 29.333c0 0 10-8 10-16.667 0-5.523-4.477-10-10-10s-10 4.477-10 10c0 8.667 10 16.667 10 16.667z"></path>
<path stroke-width="1.7778" stroke-miterlimit="4" stroke-linecap="butt" stroke-linejoin="round" d="M16 16.667c0.525 0 1.045-0.103 1.531-0.305s0.926-0.496 1.298-0.867 0.666-0.812 0.867-1.298c0.201-0.485 0.305-1.005 0.305-1.531s-0.103-1.045-0.305-1.531c-0.201-0.485-0.496-0.926-0.867-1.298s-0.812-0.666-1.298-0.867c-0.485-0.201-1.005-0.304-1.531-0.304-1.061 0-2.078 0.421-2.828 1.172s-1.172 1.768-1.172 2.828c0 1.061 0.421 2.078 1.172 2.828s1.768 1.172 2.828 1.172z"></path>
</symbol>

<symbol id="icon-phone" viewBox="0 0 32 32">
<path d="M6.31 4.724c1.623-1.613 4.295-1.327 5.653 0.489l1.683 2.245c1.107 1.477 1.008 3.541-0.305 4.847l-0.317 0.317c-0.036 0.133-0.040 0.273-0.011 0.408 0.084 0.544 0.539 1.696 2.443 3.589s3.064 2.347 3.616 2.432c0.139 0.028 0.283 0.024 0.42-0.012l0.544-0.541c1.168-1.16 2.96-1.377 4.405-0.592l2.547 1.387c2.183 1.184 2.733 4.149 0.947 5.927l-1.895 1.883c-0.597 0.593-1.4 1.088-2.379 1.18-2.413 0.225-8.036-0.063-13.947-5.939-5.516-5.485-6.575-10.269-6.709-12.627-0.067-1.192 0.496-2.2 1.213-2.912l2.092-2.081zM10.363 6.412c-0.676-0.903-1.935-0.975-2.644-0.269l-2.093 2.080c-0.44 0.437-0.651 0.92-0.624 1.381 0.107 1.873 0.96 6.189 6.123 11.323 5.416 5.384 10.417 5.545 12.351 5.364 0.395-0.036 0.787-0.241 1.153-0.605l1.893-1.884c0.771-0.765 0.601-2.16-0.489-2.752l-2.547-1.385c-0.704-0.381-1.528-0.256-2.040 0.253l-0.607 0.604-0.707-0.709c0.707 0.709 0.705 0.711 0.704 0.711l-0.001 0.003-0.004 0.004-0.009 0.008-0.020 0.019c-0.056 0.052-0.117 0.1-0.181 0.141-0.107 0.071-0.248 0.149-0.425 0.215-0.36 0.135-0.837 0.207-1.427 0.116-1.156-0.177-2.688-0.965-4.724-2.989-2.035-2.024-2.829-3.547-3.008-4.701-0.092-0.589-0.019-1.067 0.117-1.427 0.075-0.203 0.182-0.392 0.317-0.56l0.043-0.047 0.019-0.020 0.015-0.015 0.384-0.381c0.571-0.569 0.651-1.512 0.113-2.231l-1.681-2.245z"></path>
</symbol>

<symbol id="icon-mail" viewBox="0 0 32 32">
<path stroke-width="2" stroke-miterlimit="4" stroke-linecap="round" stroke-linejoin="round" d="M3.143 10.285l9.307 6.205c1.284 0.855 1.925 1.283 2.619 1.449 0.613 0.147 1.252 0.147 1.864 0 0.693-0.167 1.335-0.595 2.619-1.449l9.307-6.205M9.543 26h12.915c2.24 0 3.36 0 4.216-0.436 0.752-0.384 1.363-0.996 1.747-1.748 0.437-0.856 0.437-1.976 0.437-4.216v-7.2c0-2.24 0-3.36-0.436-4.216-0.383-0.753-0.995-1.364-1.748-1.748-0.856-0.436-1.976-0.436-4.216-0.436h-12.915c-2.24 0-3.36 0-4.216 0.436-0.752 0.384-1.364 0.996-1.747 1.748-0.437 0.856-0.437 1.976-0.437 4.216v7.2c0 2.24 0 3.36 0.436 4.216 0.384 0.753 0.995 1.365 1.748 1.748 0.856 0.436 1.976 0.436 4.216 0.436z"></path>
</symbol>

</defs>
</svg>
