<svg aria-hidden="true" style="position: absolute; width: 0; height: 0; overflow: hidden;" version="1.1" xmlns="http://www.w3.org/2000/svg" xmlns:xlink="http://www.w3.org/1999/xlink">
<defs>

<symbol id="icon-instagram" viewBox="0 0 32 32">
<path fill="none" stroke="#f45588" stroke-width="2" stroke-miterlimit="4" stroke-linecap="butt" stroke-linejoin="miter" style="stroke: var(--color1, #f45588)" d="M16 1c8.284 0 15 6.716 15 15s-6.716 15-15 15c-8.284 0-15-6.716-15-15s6.716-15 15-15z"></path>
<path fill="#f45588" style="fill: var(--color1, #f45588)" d="M12.267 7.111h7.467c2.845 0 5.156 2.311 5.156 5.156v7.467c0 1.367-0.543 2.679-1.51 3.645s-2.278 1.51-3.646 1.51h-7.467c-2.844 0-5.156-2.311-5.156-5.155v-7.467c0-1.367 0.543-2.679 1.51-3.646s2.278-1.51 3.646-1.51zM12.089 8.889c-0.849 0-1.663 0.337-2.263 0.937s-0.937 1.414-0.937 2.263v7.822c0 1.769 1.431 3.2 3.2 3.2h7.822c0.849 0 1.663-0.337 2.263-0.937s0.937-1.414 0.937-2.263v-7.822c0-1.769-1.431-3.2-3.2-3.2h-7.822zM20.667 10.222c0.295 0 0.577 0.117 0.786 0.325s0.325 0.491 0.325 0.786c0 0.295-0.117 0.577-0.325 0.786s-0.491 0.325-0.786 0.325c-0.295 0-0.577-0.117-0.786-0.325s-0.325-0.491-0.325-0.786c0-0.295 0.117-0.577 0.325-0.786s0.491-0.325 0.786-0.325zM16 11.556c1.179 0 2.309 0.468 3.143 1.302s1.302 1.964 1.302 3.143c0 1.179-0.468 2.309-1.302 3.143s-1.964 1.302-3.143 1.302c-1.179 0-2.309-0.468-3.143-1.302s-1.302-1.964-1.302-3.143c0-1.179 0.468-2.309 1.302-3.143s1.964-1.302 3.143-1.302zM16 13.334c-0.707 0-1.385 0.281-1.886 0.781s-0.781 1.178-0.781 1.886c0 0.707 0.281 1.385 0.781 1.886s1.178 0.781 1.886 0.781c0.707 0 1.386-0.281 1.886-0.781s0.781-1.178 0.781-1.886c0-0.707-0.281-1.386-0.781-1.886s-1.178-0.781-1.886-0.781z"></path>
</symbol>

<symbol id="icon-telegram" viewBox="0 0 32 32">
<path fill="none" stroke="#f45588" stroke-width="2" stroke-miterlimit="4" stroke-linecap="butt" stroke-linejoin="miter" style="stroke: var(--color1, #f45588)" d="M16 1c8.284 0 15 6.716 15 15s-6.716 15-15 15c-8.284 0-15-6.716-15-15s6.716-15 15-15z"></path>
<path fill="none" stroke="#f45588" stroke-width="2.6667" stroke-miterlimit="4" stroke-linecap="round" stroke-linejoin="round" style="stroke: var(--color1, #f45588)" d="M21.778 23.111l2.222-13.333-10.667 7.556"></path>
<path fill="none" stroke="#f45588" stroke-width="2.6667" stroke-miterlimit="4" stroke-linecap="round" stroke-linejoin="round" style="stroke: var(--color1, #f45588)" d="M24 9.778l-16.889 6.667"></path>
<path fill="none" stroke="#f45588" stroke-width="2.6667" stroke-miterlimit="4" stroke-linecap="round" stroke-linejoin="round" style="stroke: var(--color1, #f45588)" d="M21.778 23.111l-8.444-5.778"></path>
<path fill="none" stroke="#f45588" stroke-width="2.6667" stroke-miterlimit="4" stroke-linecap="round" stroke-linejoin="round" style="stroke: var(--color1, #f45588)" d="M7.111 16.445l6.222 0.889"></path>
<path fill="none" stroke="#f45588" stroke-width="2.6667" stroke-miterlimit="4" stroke-linecap="round" stroke-linejoin="round" style="stroke: var(--color1, #f45588)" d="M16 19.556l-2.667 2.667v-4.889"></path>
</symbol>

<symbol id="icon-tiktok" viewBox="0 0 32 32">
<path fill="none" stroke="#f45588" stroke-width="2" stroke-miterlimit="4" stroke-linecap="butt" stroke-linejoin="miter" style="stroke: var(--color1, #f45588)" d="M16 1c8.284 0 15 6.716 15 15s-6.716 15-15 15c-8.284 0-15-6.716-15-15s6.716-15 15-15z"></path>
<path fill="#f45588" style="fill: var(--color1, #f45588)" d="M20.089 10.507c-0.607-0.694-0.942-1.585-0.942-2.507h-2.747v11.022c-0.021 0.597-0.272 1.162-0.702 1.576s-1.003 0.646-1.6 0.646c-1.262 0-2.311-1.031-2.311-2.311 0-1.529 1.476-2.676 2.995-2.204v-2.809c-3.067-0.409-5.751 1.973-5.751 5.013 0 2.96 2.453 5.067 5.058 5.067 2.791 0 5.058-2.267 5.058-5.067v-5.591c1.114 0.8 2.451 1.229 3.822 1.227v-2.747c0 0-1.671 0.080-2.88-1.316z"></path>
</symbol>


</defs>
</svg>
